<?xml version="1.0" encoding="UTF-8"?>
<svg id="Layer_1" xmlns="http://www.w3.org/2000/svg" viewBox="0 0 762.49 770.8">
  <defs>
    <style>
      .cls-1 {
        fill: #fff;
      }
    </style>
  </defs>
  <g>
    <path class="cls-1" d="M348.64,90.21v231.84l-98.57,116.61v21.75h-47.2v-23.14l-98.56-116.15V90.21h46.74v206.85l75.43,90.24,76.82-89.31V90.21h45.35Z"/>
    <path class="cls-1" d="M397.14,124.51v-34.3h271.7s0,34.64,0,34.64h-118.19v110.38h118.19s0,34.64,0,34.64h-271.7s0-34.3,0-34.3h118.87v-111.05h-118.87Z"/>
    <path class="cls-1" d="M93.65,647.05h16.6l128.5-108.91H93.65v-33.2h265.65v33.2h-64.75l-128.18,108.91h192.93v33.54H93.65v-33.54Z"/>
    <path class="cls-1" d="M454.35,294.04v336.74h206v49.21h-254.73v-385.95h48.72Z"/>
  </g>
  <path class="cls-1" d="M571.87,383.01l13.88,61.31c2.03,8.98,8.21,16.46,16.64,20.15l25.7,11.25-25.7,11.25c-8.43,3.69-14.61,11.17-16.64,20.15l-13.88,61.31-13.91-61.43c-2.02-8.91-8.12-16.34-16.46-20.06l-25.86-11.53,25.54-10.96c8.53-3.66,14.78-11.18,16.83-20.23l13.85-61.18Z"/>
  <path class="cls-1" d="M226.48,147.84l13.88,61.31c2.03,8.98,8.21,16.46,16.64,20.15l25.7,11.25-25.7,11.25c-8.43,3.69-14.61,11.17-16.64,20.15l-13.88,61.31-13.91-61.43c-2.02-8.91-8.12-16.34-16.46-20.06l-25.86-11.53,25.54-10.96c8.53-3.66,14.78-11.18,16.83-20.23l13.85-61.18Z"/>
</svg>