<?xml version="1.0" encoding="UTF-8"?>
<svg id="Layer_1" xmlns="http://www.w3.org/2000/svg" viewBox="0 0 762.49 770.8">
  <path d="M387.09,313.49c2.04,37.49,5.98,78.45,12.78,122.2,5.64,36.28,12.54,70.06,20.08,101.13-4.32,5.98-17.9,26.39-16.29,55.09,1.29,22.95,11.61,39.01,16.29,45.46,0,2.19-.22,13.83-9.62,23.23-5.95,5.95-14.16,9.62-23.23,9.62-18.14,0-32.85-14.71-32.85-32.85,4.7-7.2,13.74-23.22,14.9-45.46,1.45-27.86-10.36-48.09-14.9-55.08,7.06-30.89,13.54-63.97,19.01-99.08,6.86-44.06,11.24-85.64,13.85-124.25Z"/>
  <circle cx="387.09" cy="313.49" r="29.8"/>
  <path d="M387.09,316.56c-16.2,1.36-35.32,4.26-56.27,10.09-13.76,3.83-26.09,8.3-36.88,12.86-4.18-3.01-18.43-12.5-38.47-11.37-16.02.9-27.24,8.1-31.74,11.37-1.53,0-9.66-.15-16.22-6.72-4.15-4.15-6.72-9.89-6.72-16.22h0c0-12.67,10.27-22.94,22.94-22.94,5.03,3.28,16.21,9.59,31.75,10.41,19.45,1.02,33.58-7.24,38.46-10.41,10.09,4.94,22.23,9.95,36.29,14.04,21.9,6.37,41.52,8.46,56.86,8.9Z"/>
  <path d="M387.09,316.56c16.2-1.36,35.32-4.26,56.27-10.09,13.76-3.83,26.09-8.3,36.88-12.86,4.18,3.01,18.43,12.5,38.47,11.37,16.02-.9,27.24-8.1,31.74-11.37,1.53,0,9.66.15,16.22,6.72,4.15,4.15,6.72,9.89,6.72,16.22h0c0,12.67-10.27,22.94-22.94,22.94-5.03-3.28-16.21-9.59-31.75-10.41-19.45-1.02-33.58,7.24-38.46,10.41-10.09-4.94-22.23-9.95-36.29-14.04-21.9-6.37-41.52-8.46-56.86-8.9Z"/>
  <path d="M387.09,316.56c-1.18-21.97-5.81-51.11-20.24-81.92-3.98-8.49-8.26-16.19-12.62-23.12,4.32-5.98,17.9-26.39,16.29-55.09-1.29-22.95-11.61-39.01-16.29-45.46,0-2.19.22-13.83,9.62-23.23,5.95-5.95,14.16-9.62,23.23-9.62,18.14,0,32.85,14.71,32.85,32.85-4.7,7.2-13.74,23.22-14.9,45.46-1.45,27.86,10.36,48.09,14.9,55.08-3.84,6.9-7.58,14.35-11.11,22.35-13.38,30.4-19.29,59.1-21.75,82.69Z"/>
</svg>